<svg xmlns="http://www.w3.org/2000/svg" viewBox="0 0 128 128">
  <defs>
    <linearGradient id="bg" x1="0%" y1="0%" x2="100%" y2="100%">
      <stop offset="0%" style="stop-color:#1d4350"/>
      <stop offset="100%" style="stop-color:#a43931"/>
    </linearGradient>
  </defs>
  <rect width="128" height="128" rx="22" fill="url(#bg)"/>
  <!-- Input file -->
  <rect x="12" y="28" width="40" height="50" rx="6" fill="#0d2233" stroke="#00d2ff" stroke-width="2"/>
  <text x="32" y="53" text-anchor="middle" font-family="monospace" font-size="8" font-weight="bold" fill="#00d2ff">MP4</text>
  <line x1="18" y1="62" x2="46" y2="62" stroke="#00d2ff" stroke-width="1.5" opacity="0.5"/>
  <line x1="18" y1="68" x2="40" y2="68" stroke="#00d2ff" stroke-width="1.5" opacity="0.3"/>
  <!-- Arrow -->
  <path d="M56 54 Q64 54 64 54 L64 46 L76 58 L64 70 L64 62 Q56 62 56 62 Z"
        fill="white" opacity="0.9"/>
  <!-- Output file -->
  <rect x="78" y="28" width="40" height="50" rx="6" fill="#3d0d10" stroke="#ff6b6b" stroke-width="2"/>
  <text x="98" y="53" text-anchor="middle" font-family="monospace" font-size="8" font-weight="bold" fill="#ff6b6b">FLAC</text>
  <line x1="84" y1="62" x2="112" y2="62" stroke="#ff6b6b" stroke-width="1.5" opacity="0.5"/>
  <line x1="84" y1="68" x2="106" y2="68" stroke="#ff6b6b" stroke-width="1.5" opacity="0.3"/>
  <!-- Progress bar -->
  <rect x="18" y="90" width="92" height="10" rx="5" fill="#0d1a1a"/>
  <rect x="18" y="90" width="60" height="10" rx="5" fill="url(#bg)"/>
  <rect x="18" y="90" width="60" height="10" rx="5" fill="none" stroke="#00d2ff" stroke-width="1.5" opacity="0.5"/>
  <text x="64" y="111" text-anchor="middle" font-size="9" fill="white" opacity="0.7">Converting...</text>
</svg>
