<?xml version="1.0" encoding="UTF-8"?>
<svg xmlns="http://www.w3.org/2000/svg" xmlns:xlink="http://www.w3.org/1999/xlink" width="363pt" height="160pt" viewBox="0 0 363 160" version="1.1">
<g id="surface1">
<path style=" stroke:none;fill-rule:evenodd;fill:rgb(0%,0%,0%);fill-opacity:1;" d="M 27.335938 20.808594 L 31.730469 0.359375 L 164.703125 0.359375 L 182.785156 59 L 230.1875 0.359375 L 311.796875 0.359375 C 331.292969 3.140625 347.253906 9.105469 356.058594 21.511719 C 368.796875 39.464844 360.988281 59.621094 344.644531 72.546875 C 339.8125 76.375 334.109375 79.628906 327.601563 82.351563 C 312.375 88.714844 298.773438 90.277344 282.65625 90.152344 L 234.585938 89.785156 L 247.777344 28.699219 L 282.964844 28.699219 L 274.605469 70.214844 C 279.707031 70.789063 284.003906 70.597656 289.433594 70.359375 C 298.851563 69.941406 307.886719 68.4375 315.378906 62.230469 C 317.816406 60.210938 319.914063 57.832031 321.671875 55.097656 C 328.097656 45.070313 329.589844 34.988281 319.9375 26.460938 C 316.4375 23.363281 311.929688 21.503906 306.421875 20.882813 L 251.199219 21.371094 L 171.058594 111.289063 L 139.285156 21.078125 L 135.921875 21.371094 C 149.285156 45.964844 129.082031 69 107.824219 80.585938 C 96.839844 86.570313 84.761719 89.910156 71.855469 91.253906 L 11.207031 90.480469 L 24.941406 28.210938 L 59.148438 28.210938 L 50.839844 69.75 C 55.992188 70.382813 61.144531 70.648438 66.296875 70.246094 C 73.703125 69.675781 82.46875 67.273438 88.878906 63.695313 C 93.828125 60.929688 97.613281 57.335938 99.855469 52.632813 C 103.011719 46.003906 103.660156 35.714844 98.679688 29.824219 C 93.230469 23.386719 84.273438 20.886719 76.207031 20.875 L 27.335938 20.808594 "/>
<path style=" stroke:none;fill-rule:evenodd;fill:rgb(0%,0%,0%);fill-opacity:1;" d="M 170.8125 111.777344 C 264.855469 111.777344 341.113281 122.386719 341.113281 135.476563 C 341.113281 148.570313 264.855469 159.179688 170.8125 159.179688 C 76.769531 159.179688 0.511719 148.570313 0.511719 135.476563 C 0.511719 122.386719 76.769531 111.777344 170.8125 111.777344 Z M 165.191406 128.390625 C 187.589844 128.390625 205.753906 132.328125 205.753906 137.1875 C 205.753906 142.046875 187.589844 145.984375 165.191406 145.984375 C 142.796875 145.984375 124.632813 142.046875 124.632813 137.1875 C 124.632813 132.328125 142.796875 128.390625 165.191406 128.390625 "/>
</g>
</svg>
